<svg xmlns="http://www.w3.org/2000/svg" version="1.1" xmlns:xlink="http://www.w3.org/1999/xlink" xmlns:svgjs="http://svgjs.dev/svgjs" width="1000" height="1000" viewBox="0 0 1000 1000"><rect width="1000" height="1000" fill="#0c1d36"></rect><g transform="matrix(0.7,0,0,0.7,150.03505493568252,193.99843362535472)"><svg viewBox="0 0 282 247" data-background-color="#0c1d36" preserveAspectRatio="xMidYMid meet" height="875" width="1000" xmlns="http://www.w3.org/2000/svg" xmlns:xlink="http://www.w3.org/1999/xlink"><g id="tight-bounds" transform="matrix(1,0,0,1,-0.013781909464171349,-0.09997365579206985)"><svg viewBox="0 0 282.02769058365755 247.2" height="247.2" width="282.02769058365755"><g><svg viewBox="0 0 282.02769058365755 247.2" height="247.2" width="282.02769058365755"><g><svg viewBox="0 0 282.02769058365755 247.2" height="247.2" width="282.02769058365755"><g id="textblocktransform"><svg viewBox="0 0 282.02769058365755 247.2" height="247.2" width="282.02769058365755" id="textblock"><g><svg viewBox="0 0 282.02769058365755 247.2" height="247.2" width="282.02769058365755"><path d="M281.367 53.02C280.042 27.36 276.263 20.227 276.263 20.227 264.661-6.202 250.183-0.506 237.176 3.292 214.212 3.446 191.341 9.091 168.43 12.119 120.34 12.581 71.84 4.986 23.989 23.717 19.494 29.464-4.663 24.846 0.799 56.304 2.231 69.39 7.455 83.913 7.296 95.922 8.012 98.026 9.007 93.202 9.431 96.23 10.916 104.39 13.342 100.541 15.331 105.365 12.56 118.246 14.549 128.971 16.445 140.21 13.104 143.135 8.821 141.749 6.899 151.449 6.7 158.479 5.626 157.145 4.446 156.837 3.584 156.632 1.847 157.402 2.139 159.608 3.133 167.152-1.136 171.514 1.542 178.904-0.301 186.91 2.815 193.838 2.391 202.511 2.338 204.255 2.629 205.744 3.093 206.154 5.148 208.361 2.152 212.672 2.47 217.342 23.551 249.262 46.423 227.195 68.021 241.872 73.63 231.608 69.413 245.516 71.654 243.36 73.404 240.846 74.677 251.263 76.653 245.362 76.958 243.668 76.494 239.665 77.581 240.435 78.151 240.846 78.655 240.743 78.734 238.382 78.854 234.841 77.806 237.048 77.528 235.201 80.537 225.861 79.795 248.081 82.619 247.158 82.487 244.438 81.664 240.538 83.348 241.051 85.019 237.151 85.072 233.918 86.557 242.693 86.61 244.592 86.875 245.926 87.299 246.85 91.94 237.305 96.554 250.237 101.42 245.926 104.403 241.205 107.267 248.492 110.29 246.696 111.351 245.259 112.425 242.693 113.446 247.004 125.949 247.928 139.274 244.079 151.127 247.158 182.802 241.41 216.652 249.518 250.05 241.923 257.926 238.998 266.107 234.841 273.783 231.506 273.783 231.506 280.002 222.371 280.002 181.316S281.328 145.393 281.527 112.703C281.725 80.013 282.654 78.679 281.328 53.02Z" opacity="1" fill="#f9cc0b" data-fill-palette-color="tertiary"></path><g transform="matrix(1,0,0,1,55.76831999999999,26.230666666666668)"><svg width="170.49105058365757" viewBox="0.75 -37.55 33.75 38.55" height="194.73866666666666" data-palette-color="#0c1d36"><path d="M18.05-35.1L15.25-31.1Q12.7-33.55 9.85-33.55L9.85-33.55Q8.8-33.55 7.7-33.15L7.7-33.15 8.85-23.4 14.1-23.4 14.25-22 11.9-19.55 8.6-19.55 8.6-3.3Q11.75-3 13.15-2.4L13.15-2.4 12.85 0 1 0 0.75-1.65 4.15-2.9 4.15-19.65 1.05-19.55 0.75-22Q2.05-22.6 4.15-23.1L4.15-23.1 4.15-28.15Q4.15-32.25 6.55-34.9 8.95-37.55 12.4-37.55L12.4-37.55Q15.7-37.55 18.05-35.1L18.05-35.1ZM21.95-18.5L21.95-18.5Q21.95-16.9 23.25-15.95 24.55-15 27.25-13.8L27.25-13.8 30.2-12.45Q34.5-10.2 34.5-6.25L34.5-6.25Q34.5-3.05 32.1-1.03 29.7 1 25.9 1L25.9 1Q21.75 1 17.05-1.6L17.05-1.6 18.9-6Q23.6-2.8 28.8-2.1L28.8-2.1Q30.15-3.3 30.15-5 30.15-6.7 28.9-7.75 27.65-8.8 23.97-10.43 20.3-12.05 19.02-13.58 17.75-15.1 17.75-17.25L17.75-17.25Q17.75-20.4 20.42-22.4 23.1-24.4 27.25-24.4L27.25-24.4Q30.75-24.4 33.65-22.9L33.65-22.9Q33.8-19.25 32.8-16.45L32.8-16.45 30.1-16.45 29.75-20.3Q27.25-21.4 24.5-21.4L24.5-21.4 23.55-21.35Q21.95-20.35 21.95-18.5Z" opacity="1" transform="matrix(1,0,0,1,0,0)" fill="#0c1d36" class="wordmark-text-0" data-fill-palette-color="quaternary" id="text-0"></path></svg></g></svg></g></svg></g></svg></g><g></g></svg></g><defs></defs></svg><rect width="282.02769058365755" height="247.2" fill="none" stroke="none" visibility="hidden"></rect></g></svg></g></svg>